# xmcd
#
# Track frame offsets:
#   150
#   15995
#   29278
#   40469
#   58405
#   66801
#   78949
#   92126
#   102849
#   117408
#   127184
#   136417
#   146934
#   164065
#   174401
#   191359
#   205669
#
# Disc length: 2944 seconds
#
# Revision: 1
# Processed by: cddbd v1.5.2PL0 Copyright (c) Steve Scherf et al.
# Submitted via: Media_Universe 3.0
#
DISCID=f70b7e11
DTITLE=Daniel Colin - Passion Gitane
DYEAR=1900
DGENRE=Jazz
TTITLE0=Les yeux noirs
TTITLE1=Ombrages
TTITLE2=Fugitive
TTITLE3=Paris, je t'aime
TTITLE4=Reproche
TTITLE5=Mon amant de Saint-Jean
TTITLE6=Dinette
TTITLE7=Possion gitanes
TTITLE8=Angera
TTITLE9=Folie a Amphion
TTITLE10=Bourrasque
TTITLE11=Reu de la Roquette
TTITLE12=En flamant dans les rues de Paris
TTITLE13=Germaine
TTITLE14=Suel ce soir
TTITLE15=Jacqueline
TTITLE16=Pierrine
EXTD=
EXTT0=
EXTT1=
EXTT2=
EXTT3=
EXTT4=
EXTT5=
EXTT6=
EXTT7=
EXTT8=
EXTT9=
EXTT10=
EXTT11=
EXTT12=
EXTT13=
EXTT14=
EXTT15=
EXTT16=
PLAYORDER=
